<?xml version="1.0" encoding="utf-8"?>
<!-- Generator: Adobe Illustrator 15.1.0, SVG Export Plug-In . SVG Version: 6.00 Build 0)  -->
<!DOCTYPE svg PUBLIC "-//W3C//DTD SVG 1.1//EN" "http://www.w3.org/Graphics/SVG/1.1/DTD/svg11.dtd">
<svg version="1.1" id="Layer_1" xmlns="http://www.w3.org/2000/svg" xmlns:xlink="http://www.w3.org/1999/xlink" x="0px" y="0px"
	 width="512px" height="512px" viewBox="0 0 512 512" enable-background="new 0 0 512 512" xml:space="preserve">
<path fill="#2f4f4f" d="M431,192c-26.5,0-48,21.5-48,48c0,5.646,1.167,10.958,2.938,16H79c-8.833,0-16,7.167-16,16s7.167,16,16,16
	h352c26.5,0,48-21.5,48-48S457.5,192,431,192z M79,224h192c26.5,0,48-21.5,48-48s-21.5-48-48-48s-48,21.5-48,48
	c0,5.646,1.167,10.958,2.938,16H79c-8.833,0-16,7.167-16,16S70.167,224,79,224z M335,320c-0.938,0-1.834,0.208-2.791,0.291
	c-0.625-0.041-1.146-0.291-1.771-0.291H83.584C72.209,320,63,327.167,63,336s9.209,16,20.584,16h206.354
	c-1.771,5.042-2.938,10.376-2.938,16c0,26.5,21.5,48,48,48s48-21.5,48-48S361.5,320,335,320z"/>

<path fill-rule="evenodd" clip-rule="evenodd" fill="#1D1D1B" d="M288,360.875V66.917C288,47.625,273.666,32,256,32
	c-17.667,0-32,15.625-32,34.917v293.958c-19.042,11.083-32,31.501-32,55.125c0,35.333,28.666,64,64,64c35.333,0,64-28.667,64-64
	C320,392.376,307.062,371.958,288,360.875z"/>
</svg>
